<mxfile host="app.diagrams.net" modified="2023-11-17T15:06:29.029Z" agent="Mozilla/5.0 (Windows NT 10.0; Win64; x64) AppleWebKit/537.36 (KHTML, like Gecko) Chrome/114.0.0.0 Safari/537.36" etag="p4wkAcreXPpOd7tpmyCT" version="22.1.2" type="github">
  <diagram name="Page-1" id="NddDi0v7e3Rxnfb2rufi">
    <mxGraphModel dx="2022" dy="1806" grid="1" gridSize="10" guides="1" tooltips="1" connect="1" arrows="1" fold="1" page="1" pageScale="1" pageWidth="827" pageHeight="1169" math="0" shadow="0">
      <root>
        <object label="" id="0">
          <mxCell />
        </object>
        <mxCell id="1" parent="0" />
        <mxCell id="2OSnhNh6qJ_j_nFS2NJl-10" value="" style="group" parent="1" vertex="1" connectable="0">
          <mxGeometry x="360" y="235" width="70" height="80" as="geometry" />
        </mxCell>
        <mxCell id="2OSnhNh6qJ_j_nFS2NJl-1" value="Gestion des applications" style="rounded=1;whiteSpace=wrap;html=1;verticalAlign=top;" parent="2OSnhNh6qJ_j_nFS2NJl-10" vertex="1">
          <mxGeometry width="70" height="80" as="geometry" />
        </mxCell>
        <mxCell id="2OSnhNh6qJ_j_nFS2NJl-6" style="edgeStyle=orthogonalEdgeStyle;rounded=0;orthogonalLoop=1;jettySize=auto;html=1;exitX=0.5;exitY=1;exitDx=0;exitDy=0;" parent="2OSnhNh6qJ_j_nFS2NJl-10" source="2OSnhNh6qJ_j_nFS2NJl-1" target="2OSnhNh6qJ_j_nFS2NJl-1" edge="1">
          <mxGeometry relative="1" as="geometry" />
        </mxCell>
        <mxCell id="2OSnhNh6qJ_j_nFS2NJl-7" value="MCD" style="shape=image;verticalLabelPosition=bottom;labelBackgroundColor=default;verticalAlign=top;aspect=fixed;imageAspect=0;image=data:image/png,iVBORw0KGgoAAAANSUhEUgAAADoAAAA4CAIAAAAjEXx0AAAAAXNSR0IArs4c6QAAAARnQU1BAACxjwv8YQUAAAAJcEhZcwAADsMAAA7DAcdvqGQAAAASdEVYdFNvZnR3YXJlAEdyZWVuc2hvdF5VCAUAAAj2SURBVGhD7Zh7UFPpGcbP1ln/6XTaofaPZXQ6dtqutd1xnF13p3Yb6lq7XmatdbddHbtmXZldrZeyjlbGwSYqeBcQkKsQULkoE+SWQGS5E0gIlwAhkBAIhARIMAQhVC4Jp0/ynU2RJdsQGMWZfead95wk33nzO0++2wml0Wg6OztfluzAfYn08rurVquVSmXLEhAwAMNgOcW4S4Tzjo4OtOvq6jIYDH0vVAAABmCARNiQZ7uLG0Ij5oolIMAAiYH7Zt/F3bxwX2cKMEBy6y4+YxouGQGJgYO7QJ6ppYnLwH3n7uJrtrs4uPKSxSWEXrpbWlp6+/btGG8VFxcXHR1dW1vLlPtWzXaXCC+QPcEtLCxMSkqyWq02u31yampicnLOcIg5OE4mnBofH3ecj09gQuVyuSqViinqXkAihJA37t64ccNsNtM0bRoYGOjpMer1c4ahX68n0Yfo7XWGTq/r1nVbx6y4nM/np6WlMUXda7a7OLiyJ7hXrlyBa4NGY/K774q53PaiIqVAMDPaBIJWoUBULciXCAQzQigVFtYWfBDyQZQwCrj5+fkJCQlMUfciuITQG3evXr06Pjlp1OkK9uwZLCoaqqkxi8UzY0gsHqwW16rEVR1iMULzv5B1y8JFYRGiCODm5uZiADBF3Wuh7l67ds3hrl5fExLSfe9eJ483K7qSeOoUXloJL7GSx6t4JpIrkqOLo/Mb8qen6KysrMTERKaoey3U3evXr09MTZn7+8sDAhRcbjOH44oWLkdxjtPK5TQFc27wOefzOBdyOOeyOdwsJs5lcU+mn0yrShsZGsnIyPAcl8jLoTZps1kGBx/6+Yk//rjmwIHqT9nSz9i1B9l1B9n1/my5P1t2iH06mX34PvsfaezD99hfpLD9eezPEtj+Cf5+wawrOZetFuuDBw8wwzBF3WuhuKGhocB9YrFkrFnDX7Gi2I9V/ke/yi2s6j+xJO+zpFtZdVtZ4p2sg9Gs3SmsjxJZf0lg/TmWtSPKb1v4po3Bb7/ydyqYHzxqHn1OuGFhYVN2++iTJzm/XptFUYU/WFbx0x/W/NJH+rpP3Rqf+l/5NK3xkaz78bbrK99MWLUhetX6iFXrQletvbxq5b9/8uqRZdQe6kJWyLBp+DnhhoeH2+y20ZHRwxtO7/o+e5+v/4HVXxxae+zY+oCADV+e/O2Jf208dWbzP1NSf5SeT917uOxu5rI7GcuS7rwSm0BF36LCr1DiihC93gxcHo/HFHWvheLevHlzGrijY+s2l31vdbnPWzW+fvU/2970+u7WN/a2r/+0Y/3BHr+jraZKX1pO0XUULaVoMUVXUHQxRRdQ9ENqrClYrTV5iYv10JU9xZ22Wa3/YW0vWrFG9PPfl/9mW/VbH8k2ftLo59+y5ahyS0DH7kC5Sfoa3UrRTRRdT9G1FF1N0WUULaLoHOBeaNP0e47rIvTG3YiIiOlp+9jY0/d2lby2vnjtFvGbu2W/2y9/77Bi64n2nWc0uzi6Ty4rHzf70p0U3U7RCsphs8zpcQlFCyhr8wWFSp+ZmZmcnMwUda/Z7hJ57m5kZCRNT8PdzR+Wrny77I0dknf2Nvzhc8X7J1Q7gzr/eqln742Bz6M15g5fWk/RWopWUQ6bQYxeUU7RhZS15XyTsgfueohL2CBv3I2Kwoo/jb67fV/lLzZVvfO3uk3+zTtOqD7kaPdd1R+MMR7ijZx60GfpX00PUfTAcrp3Od25nG5bTsuX09JX0SVGlSGNLV1eugt2Ipx7gnvr1i2bzTY1ZWtus9TKh+pahhqUlkaVpVFtkXdYmruGm7XDLd2PzeaS4ccCi0lg7s9/bMgb1OWatDlGTbZRze9WVdfVN2JHlpKSwhR1L5e7yN64i5Wzu7sbexSattP0pN32dHICW8Jhy5DJ/HjAZDT0Gxz7RE2nQaXubWvrVrR2trRqmhUaeZOqvlFZW9cikdbVyWTx8fHp6elMUfeaw11X9gS3tbX14sWL8EYgEOTk5GRnZ6MX4uWjR4+wcy8oKMD72Bxiw4VPHzqVmpqKzRd+etiJfPfuXaw1p06d8uTrFuoupFQq8ZV4gMGGFRxnzpw5f/68TCaTy+XIEomkurpaLBZXVlZWVVUVFRVh3QZccHAwcGEqnn/u3LnT1NTElPtWPeMukGfKQ1yXsK+DrzhBb1ar1QaD4YlTw06NjIwMDg62t7c/ffoUXQd3cv/+fXKh5yLuEnnprkvYBDo7sUNjY2M6nQ7EeDQaHR21WCy9vb2NjY0NDQ0mk4m0weMSuT3PtZjuoksAAubhSROmAlSv12u1WjgNU8k/nj09PXgfN2O329EG+0/mYs80t7t4gTxfXIwnEBuNRvLrDw0N4dfHSyKYClC87+wgT4AeFBSUl5fHXOyZCC6BXKi7ECaBs2fPYvSIRCKpVKpSwdY2hUKBA7n/iooKdACMs4CAgPmyQnO7S+QFLoRpGLMYlg/MD4GBgZcuXcWMFh4eCb7AwNNcLhe7IkxwGJfMBfMRkBi4RXF3pjC2UDQiIh6rXmxsUnp6BvrxAv8wnu0uDq48L9z6+gaRqLyoqALx1VcVOTmCsLAEPl9YVSWdmBiXy5szMrITE9OjomKFwkekGWmJ72JKeCCCSwgX5G5MTIJW29vT06vVYvTrFQoVn583MNCn1Xa1tbXhYbuvzyAWS+LjkyUSGRpotbr+/oHcXFFeXj5TwgMtmrsRETFlZVWlpWUlJaXIQqEoLi65rKwUyxhRcXFxZmbWxYvXsDqQZljk4uNTUlP//39NLi2au1lZ2cePnzh69MtjxwIQOAkKCo6JiQ8PjyIRGRkTGhq5f7//oUNHSRvEkSPHhUIhU8IDPeMuc/xa88LFGMIlGO8Q7h4Z8xQ2EnEzFBsbB+ddzYjQdZgSHmjRcJ+PnsElfYJovn33+YjgLkLffT56xl3m+LVeGlwsP8hLE5ewQbPdxdZkgWvm4gowQGLgvukuViNkpu0SEEFy6y4mRXI3L9xjMqkDBkhONIccuITdlfExbgjt0GleoADg3Hg45i8X22x3l7jmcHcp55fK3a6u/wIu//N3tTiXEQAAAABJRU5ErkJggg==;fontSize=9;" parent="2OSnhNh6qJ_j_nFS2NJl-10" vertex="1">
          <mxGeometry x="24.65" y="36" width="20.71" height="20" as="geometry" />
        </mxCell>
        <mxCell id="2OSnhNh6qJ_j_nFS2NJl-12" value="" style="group" parent="1" vertex="1" connectable="0">
          <mxGeometry x="-20" y="245" width="70" height="60" as="geometry" />
        </mxCell>
        <mxCell id="2OSnhNh6qJ_j_nFS2NJl-4" value="Base de données" style="rounded=1;whiteSpace=wrap;html=1;verticalAlign=top;" parent="2OSnhNh6qJ_j_nFS2NJl-12" vertex="1">
          <mxGeometry width="70" height="60" as="geometry" />
        </mxCell>
        <mxCell id="2OSnhNh6qJ_j_nFS2NJl-11" value="" style="shape=image;verticalLabelPosition=bottom;labelBackgroundColor=default;verticalAlign=top;aspect=fixed;imageAspect=0;image=data:image/png,iVBORw0KGgoAAAANSUhEUgAAADUAAAA0CAIAAACl2OeCAAAAAXNSR0IArs4c6QAAAARnQU1BAACxjwv8YQUAAAAJcEhZcwAADsMAAA7DAcdvqGQAAAASdEVYdFNvZnR3YXJlAEdyZWVuc2hvdF5VCAUAAAgNSURBVGhD7Zl5TJvnHcf3x7Q/9s/USJOmKM2UrkcqZc3ULUujdQ2ibdKEiCXL2rRNgGUZKYQ7+OAw5rKBmtqAuXyAD4wdjhZDsAEfYGJjGwj3bQwUczQHuVSSJn9Ezb7wvoJpFcE2qvCkfv+wbL/v87wff57n97zPK//sa9/OCt/MzMz09PT4+PjIyMjwtgYAwJiamiKoSD7A4QA+Ly4ufrOtAQAwAAMkgJF8QMa35Ck+EMAAaZ0PvNtu7r8DGCCt82HgySM+EyCRfLOzs77JBzDkJ39eZd2fz/JBnk/zrdjzjm921uV0Tk1OTk5MTGAhGB0dxXLlcEyiK/KMLcdLPpfLNTAw0NXV1dbWVldXp1AoysvLRSIRXpVKZUNDg81mw7iQZ28h3vA5HA6z2dLe3g6O6upqlUoFPqlUCr7i4uL8/Hwul8vnF8jlchgl23ibdT4ocYfP6XTq9Qaz2azT6bRa7dWrV9VqdU1NDSgBJJFI1ig5HE5RUfHY2BjZ0qsACWCIu/50OkNPT4/VaoU/o9EISo1GU19fX1tbW1VVVVlZKZPJxGJxSUlJYWEhj8eTyysWFhbIxp7HM399ff2dnZ2Dg4Pd3d2YYRaLxWQy6fV6QiQmIkRi/v2PSKvNRrb3POv+3OFr0RuwJ0Opojh6e3tRHx0dHUCEyJaWFojEWK+JJGakQCBQKlVke89D+HOXr6mpCXsKLCiYVTi5r68PiBCJ6YhCJmYkigYiUTdAlMtlUqlEKBJ7vS3yzJ9Or79z5w5+ELaNWPNwPkRiOmLQibE2GAwQ2djYCMTa2hrVFZWyUiUSiefn58kuPAwu4YE/XHh5+dsbN27Mzc0BkRA5NDREjDWKBiJbW1uBqNVq6hvqv6pRhxZGZEvS5ua851ux5yafRCpdXl6+e/cuEFGV+GWYjrhnALG/vx8i7Xb7ylib2vQGfYtWHy9KVDiSsmWM+YUt80HJpnzsnBzQPHnyBIi3b9/GN2gJRKzYEIm6JsYaRWNptyZImfKhpMzeII4potkpts6qJ+eHiH7cD8EHNrf8ZWSw8wsKnz59+ujRo/v37y8tLUEk5hZEYt0mxhoir3f3MBXsymFmmj2IbjmT2XPui/7QvP7QkuHwxkn+zLyD7M6NeOgvOycyKgZT7dmzZ7D44MEDQiTKkxhriMQ9zTHqzFQy6K0MpjWEYjpNMZ+i2E5GW45Gtr/LsAeKhyNHXdfJHjcLkAC24s9Nvti4+OKSUr3B+Pjx42fff78mEkfRA564IHJ2xlXdUrUv/hWqkZps/eSIYN9bOS+HVL8X0378XPOBMMPbbHvg9Pw40efzQ/jzgI+ekMTl5cdTaJzcL4aGhx8+fAhQFM29e/durc5IIGJFFBSJQ2KD91zaQTFeOpn914P/OrAn9Dd+2fsjdceP1fz2SPUOWX8S0efz46E/dg6FRi+XSDHKoRfD2FnZder6gYFB/EIswBjigcEhbVNzAb8wKjo2KjwuNi361YRdp6kBadnptbpa/6SjfjlvfFC1+w/Cn5+tf23c1U/2u3E89JeTE3eZIpPJSwXCFGYai5Ulkyta20zjE46bN2/NTLlslu7aKjWHw8NRTIMSvuhs7JnD598KDA3MFGaWVpf6J/q/J/rdm8JfHBT9smlESva7cTzzx+XlJSWn8PIK0jNYefkFMlmFvEKhVmM32jk25rg21vDV9aIyA0uiEpWWijNZWRQqPZGW8mnIucCwwMTCREYxg15AP5T5mp/k14cEL5Raksl+N846H5aJTfmEQhEjJbWsTBIWHhF+KaKAX9So0V4zW2w2e0dHZ4EpMc36EdP+9/yqdEps4oV/XwQiMyX9b2dOUlgUQa2Aq+ByJJz3GYf/lLFrf/JOiiiC7HfjEHxgc8sfbrI0eqLqShXGDm4yM9kKhbL9mnly0nnzm6VsbXKUMeAzgz+jLjiRysRKKRCKY2Mvn//svEav6R7sNtqMKq2KWhx3JPltf/pfsuSsTfcNnvlDuDyeUFTG4+WLysrFZdjmya42arAvvLW4FC+Oj2gJCNX7sTvDhY3ZhVxRRlrWJ8FBl3L/QZWkon/HlKNvpM/eZ+/q78LrwOjArGuTJykgoSHiLh/2BGx2FixGx8SBr0WnR32YTNe6O3v4iqKAwncumvxo5pC86wm00o+DQoNDL4edE76TY6XGSZi4xAzWxjkUpAtkeN10a03484APwf6UTk+g0hI4uVyl8orZ0oFnyoWFxWnn1wHMo8cqXz3TcpBmucDqvEBrPhGtOHGm+s+ptiia/p8xZQww4XrAIkL2uHE89kcEa1JpqSA1NV1RqUJx4Bd+993jB3e/rdOp98W9dLJ634e6/UH6w1ldcbxeZpot5vOu9I80b1CbT18ojgMiruXmjtUbf2vBFlWlupKXl8fn81cfNQpyP+fSWbS9kS/6F78eWPfKCc2eow07j9e/dOTL3e9/ufNUxe/P88ImnBO4FtnFZvHS3w9D9EK8t/XZTrECdkfveDlp10Hui4ckv3pX/cIH5XvfjN+ralJ5yYfZsBW+H8bYaUyTMYI5Hx+T7A1QvH445Y+6Dh3Kwp1ptxaCD0226u85iag4G5B3YMzpzYP6j+hvLcdyPxyY7CE/eBggAWzF34/Ht5UQ/nyab8XeT/68zP+BP5IPNxyf5QPbij/f/H9rVd+qP9xPfe3/QTxQA470h10JePHttlsEADAAA6RVfav+EHwGMg5g4LcxAAAGYAgqZIWPIEV87v3i4n8AsY8SLDH+l+cAAAAASUVORK5CYII=;" parent="2OSnhNh6qJ_j_nFS2NJl-12" vertex="1">
          <mxGeometry x="24.810000000000002" y="35" width="20.38" height="20" as="geometry" />
        </mxCell>
        <UserObject label="" tooltip="qsdqd" id="peDO19Bve1qTufZmqFdl-5">
          <mxCell style="edgeStyle=orthogonalEdgeStyle;rounded=0;orthogonalLoop=1;jettySize=auto;html=1;entryX=1;entryY=0.5;entryDx=0;entryDy=0;" edge="1" parent="1" source="peDO19Bve1qTufZmqFdl-1" target="2OSnhNh6qJ_j_nFS2NJl-4">
            <mxGeometry relative="1" as="geometry">
              <mxPoint x="90" y="279.9999999999999" as="targetPoint" />
            </mxGeometry>
          </mxCell>
        </UserObject>
        <mxCell id="peDO19Bve1qTufZmqFdl-7" value="Fait&lt;br&gt;référence" style="edgeLabel;html=1;align=center;verticalAlign=middle;resizable=0;points=[];" vertex="1" connectable="0" parent="peDO19Bve1qTufZmqFdl-5">
          <mxGeometry x="-0.0222" relative="1" as="geometry">
            <mxPoint as="offset" />
          </mxGeometry>
        </mxCell>
        <mxCell id="peDO19Bve1qTufZmqFdl-6" value="" style="group" vertex="1" connectable="0" parent="1">
          <mxGeometry x="157.5" y="240" width="120" height="70" as="geometry" />
        </mxCell>
        <mxCell id="peDO19Bve1qTufZmqFdl-1" value="Catalogue de données" style="rounded=1;whiteSpace=wrap;html=1;verticalAlign=top;" vertex="1" parent="peDO19Bve1qTufZmqFdl-6">
          <mxGeometry width="120" height="70" as="geometry" />
        </mxCell>
        <mxCell id="peDO19Bve1qTufZmqFdl-4" value="" style="shape=image;verticalLabelPosition=bottom;labelBackgroundColor=default;verticalAlign=top;aspect=fixed;imageAspect=0;image=data:image/png,iVBORw0KGgoAAAANSUhEUgAAADUAAAA2CAIAAADoEEaJAAAAAXNSR0IArs4c6QAAAARnQU1BAACxjwv8YQUAAAAJcEhZcwAADsMAAA7DAcdvqGQAAAASdEVYdFNvZnR3YXJlAEdyZWVuc2hvdF5VCAUAAAhYSURBVGhD7dkLVFP3HQfwqx2C2NM52NZpe+rZOV2PnVP7UJFqN85phdZXoTp5g+iKWHyB8hLrOttVrUJFJ5Y3QQIHH9VZQcCQ5N7cR3KTAAl5Q3gIyQ0aMBWmlMHOfoE7oWyTBOlMz9mXHMjzx4fvP7n3kiCtrh2kzbVj7w9+wHej0ajValUqVdMTDQCA0dLSMqpi+wMc3ACXTSaT+YkGAMAADJAAxvqADNeyd3GBAAZIYz7wPvHmxgcwQBrzwcKzt7hMgGT3tY/ENX0A+39/U81Yfy7rm57+DO3M8Rv3Np66Tygt7FXTEba/x/HZZdV9/p/di8swFFcZpU1dcGVnl0lh6DaZ7OcfJ4/lA9mJmr63jtjCDmm+qqzvsbUPDvXcH+wtx23xFx6cL+YxeansXaeaKfp0bczR6r/5HbJt3q8uuyy19rR+O3S3b/Cb6o7hg3XDOQXErd1+t7a+rE58n33AVMP6OkbiiE/Xyhytve9z4O7aWEVxOdVtbRkY6gVZlV02dDpbpIxc1fz2fPJYmqLdbH7wQNdr69CqOs4kt+d9wo5wJkACmKP9/eVSd3B2/5Z9DRwOauk2DAzd7R/sB1m6YDgvV6ANWaZd8XNhanx9c6tlcLBneJjpt1kEFR1/jDHuDTJ+uoOd4kyc6+/jc8yrkZb0si7LPVvf4L3KtqEDNUM5Oagm8BXFS961H8ZI1Qa77B/Dln6bSVjRlhSiWbekKeBlVeBi42e72CnOZKw/R3xHchmfCGbDXlvQoW925A99nkWqovzkz8+tDNssaVQzg9/2gqzvrhmtaEuJUL65ULb4WbnPC8q1v2kNWtT2P+jvSA6zcisT9ZF12WaL51LbzZ0RxvAXBXJd99DfQXa738YIuMa9m+WLXsC9PcgFzzS89rzeZ55h9Xxs49LKkny9sVWlVrOzHIuT/Y34ItKtq6Nvz15uvZG8a/DMenN2ikWFdUuutsS9J/6FF+8phO+JSOfP0Tzn3vDi018HLPvy4/SiqpvCRo1U1kBLZV1dThzCOdffJ7l2X2ia3ee5wspL3D6QF6XfFqBcuYDn9cwVBLmGIKgbIp2FYD+ZVRyw6tSJY6UoRepaFCot4EixlBTLoAl2nANh+3PUl8P4xpjD062rIqG/O7X7tg18GW6ID6See5qDIDUzECGCXHV3y1rnn5mfe1neWG9oVSo1tFQOMkpCU7RULJZqtHp2nAMZ8926dWtSX9IXjE+0OfQg+O7Mfv02LxF8Yfod6+lfeV1AkHLvucdCg7MuXrqpa1bojY2KJrFENl4G5ZESur5ewY5zIM71l5xp8Ykyh6RY34i84/GqqTYhZuBcpG7bO5KfuqVHhh/mll6oE2p1BoVCTdH/QUZQcJJQYrqry9H9MuuD8hzqL5PxBd/BEd8rppo9MQ+ywwzb3+XPmXkgcOOfzp29UnFJhIrkDUoxLaeoiTJCLCFJWkRQcDDHTpwsQAKYw+sLvq1McMod33Crx9Ku6t1R98+E6qIDrs+ZkbhgQeoXGeXcsurKG7CypL0/yQQZTopxQkwQEpVaw06cLM71l5zJrIxitiTf8Y20ui/prNoVPXAmTBf5dqWX2wc/eirxyOGiYs6VS1/V1zeSUvD9u4wSkZQIp2hazk6cLM71tz+TWRHBbEq2rgzvmb24hb83rP9UqC7srZpnZ0ciyM4PtmcX5ldwyymoTgpbE1qEi3FqvEwswkmcgBPl4D+yzvW3P4Pxi7UEJd5+LazHc5EeTwjuOxmsDfGr+ZlnOIJErPY9mZdTVsrl1fLkUKGYxnHyoQzOYwSJiShMRAhFOBy1s0MfGbY/B337PjeFpN4urexfsql39q912J4t4NP9/rc13h4RCBLk7XXkdGYp5/zVy1caGhtxWFaCHC8TiQgUJ1CMRDG8qUnFDn1kxnydnZ2T+rYdNkWm9/ClA0u29Hos1KB7Nt+D/t5fXe3lvhVB1syYkZyeVlhSwi3hSqX21y8sLoZNlGEiXIiKKIpmhz4yzvWXeJLxjWbi/tzrE3HX4yUFtmuT7dP3tIG+NXM9tiHImwjyh+BNOZxiTmERKsQktBx8QhQflWEYsOwyOKFCHMVEjjwFWR+U50h/+hZz6mnGf6fFJ7x31i8VtTtDHpyL06xfXv1jN/D5wRIvWphVWABfX1+9Jpc3YIQYRYkxGWaXCYSYAMX4fKy1dfKnIJAA5uj6jqYaM3941Jp6WNaW9m5/ZXZzzMYrs5BQBPkdgvi7ux87lVlYWMQt5cpk9RhBofBq+K5MKBDxBShfiCqVk/865/qbkIHsAGNaiHrt6xc8ZwYhyDoEecPNLSnlQAGnqCC3gCRJ2P7B3gI0E2QCPlbHF+I4wQ7675lKfw9jUtHG1GDb+uWSOTOjZ85cNW+ev79/SHgop4STl5NTXVUjoWXw4uDz0XEyIcjq6oQCwfffH6TL2Hw54/jxsNCPkpNjY2M3bNiwxn9NfkH+2bNny7hlMlmDECUEQhSI/5LZz8jk9fDr2BGPDNvfCG8qvodRq9VZWVkxMTEB7wScyDhRwinJz8+HYxXhyDaFx+ODjF8nEItp2B+wj3EgYz445nkcHzxcpVIVFRUlJCTE745va2+7UXWj8vp1OD5AMeImj0+QJByps/d2ONPWHwS2ZzqdTiQSxcXF1fJqKyoqrv31Gk3LYC9iNE7xbW3WB3/9Y/b3MDDn4sWLaQfTkpKSzp8/bzAY2BumFCDBwGlY3/GZxjfZp7+/6c330t805gfS3w/AB09qV+/PNT/fYn2jW1dX+3xQr9ezPgjsGcEL1z7xFgEADMAAye6Dy6OBy0CGG2Dhn2AAAAzAjKrY9R0p0R5XOz/WnyvGZPonWcrxP1QV0d4AAAAASUVORK5CYII=;" vertex="1" parent="peDO19Bve1qTufZmqFdl-6">
          <mxGeometry x="48.5" y="40" width="23" height="23.43" as="geometry" />
        </mxCell>
        <UserObject label="" tooltip="qsdqd" id="peDO19Bve1qTufZmqFdl-8">
          <mxCell style="edgeStyle=orthogonalEdgeStyle;rounded=0;orthogonalLoop=1;jettySize=auto;html=1;entryX=-0.045;entryY=0.507;entryDx=0;entryDy=0;exitX=1;exitY=0.5;exitDx=0;exitDy=0;entryPerimeter=0;" edge="1" parent="1" source="peDO19Bve1qTufZmqFdl-1" target="2OSnhNh6qJ_j_nFS2NJl-1">
            <mxGeometry relative="1" as="geometry">
              <mxPoint x="60" y="285" as="targetPoint" />
              <mxPoint x="168" y="285" as="sourcePoint" />
            </mxGeometry>
          </mxCell>
        </UserObject>
        <mxCell id="peDO19Bve1qTufZmqFdl-9" value="Fait&lt;br&gt;référence" style="edgeLabel;html=1;align=center;verticalAlign=middle;resizable=0;points=[];" vertex="1" connectable="0" parent="peDO19Bve1qTufZmqFdl-8">
          <mxGeometry x="-0.0222" relative="1" as="geometry">
            <mxPoint as="offset" />
          </mxGeometry>
        </mxCell>
        <mxCell id="peDO19Bve1qTufZmqFdl-15" value="" style="group" vertex="1" connectable="0" parent="1">
          <mxGeometry x="770" y="240" width="120" height="70" as="geometry" />
        </mxCell>
        <mxCell id="peDO19Bve1qTufZmqFdl-12" value="Environnement cartographique" style="rounded=1;whiteSpace=wrap;html=1;verticalAlign=top;" vertex="1" parent="peDO19Bve1qTufZmqFdl-15">
          <mxGeometry width="120" height="70" as="geometry" />
        </mxCell>
        <mxCell id="peDO19Bve1qTufZmqFdl-14" value="" style="shape=image;verticalLabelPosition=bottom;labelBackgroundColor=default;verticalAlign=top;aspect=fixed;imageAspect=0;image=data:image/png,iVBORw0KGgoAAAANSUhEUgAAADYAAAA1CAIAAACFs48kAAAAAXNSR0IArs4c6QAAAARnQU1BAACxjwv8YQUAAAAJcEhZcwAADsMAAA7DAcdvqGQAAAASdEVYdFNvZnR3YXJlAEdyZWVuc2hvdF5VCAUAAAqZSURBVGhD1ZlbUGL3Hcfz0odO0qbJJN10k07SbjdNu2k6TdOHti+dyfShD33q9KGPja5xb7obb6tZza6bdb2DN7xfuAgiCgoKAoKrqHiDFUGuIiggIjddULmf/thzZs1OT5SkndF85jcDh8P8fp/5/s8NfWHjzPPC5pnnSNFisej1eo1Goz5VQAA0QAbTAkWbzQYvVqsV9q2vrzscjq1TBQRAA2RACXXDUgRx2IF96wwAMqCEuiVTBMD61PP7KiADSqgbpggHAbbzzABKqNsLdrv9zCqibt+RFIEzmyLwXVCEc+d4RfdTPE9B37tcru3tbedTsC+dhN3u2NiwYRupAUqo28kpgodILh+UStEaGB9PlkRyTLHE46yvfAfes0VS/vj0iEQGu559LpbLsRl4PJcicIwiADOQb8LCwurq6nooFMG2EWRz0zk/v6rTWU0mm8+3F4/H4UNoiw3AA00ROHmhAZZYDB0TKQCzHY6dri6eWDwfi8WxTxMJr3cPbq6Hh+GdHT+I+v1PkopiMTYAD1Qx1RSZYnECQWDgiWV37IhEcxDY0pJudy/w7PNg8HBmRgWu4G237+j11lA4Cm2xAXg8lyJwgqJIBGNi8ThUr+wOU36XPf8lX1k5pWlQGNq1azTdOltpFgpWp2vJ3NnZFbfb1z8qzxtQ5kodt4SOLL4ji2Pt5CkhvGSfWFyrtayt2aAtNgCPI0XYOFGxTyiMJRLRWAyK/Oj2mLFKaiZyFsqUzk6zj64ydvkPRd7DGdESv4cpWLc4njwJCkRzD6TWPIntrgr5fC56jalvGFaDFgQJS+z17mp16wzBGDYAD1QpVUXG2Fg0kQjHYlBd0rxRXbnIVM2Sl87aWtQu8ry2xRPk+Q8lMgWnkzyk0627PX7ZtOp+r+xztrKELCMOPyYy5d00kdvtBz9ge9un1VnpowJsAB7PKT7b/jroAkEkHg9Fo1Dt4s+6pfnUqaKBxfsDc/dHFJWzBpJC16YxUYUTtNb2fnge3dhwKpV6Ko3P6BMtKnQrKyaLZcvnexKPJyMEwuHo9Mwyg39yikBKijQ+PxyPH0QiUC1j2ZyVezxtGRyUEjNBttk0pqxZ89JdgSGBuK2js29pSWuzOa3Wrc1NuMB7PZ7dvb39YPAAKhSCZYhHozHYNTu3Am2xAXgcKcKV+avbuNBGR0Ox2H44DNU0emNguWRIfR8OSljuCUvd0MJDtatnw98vV7TVEkl8/ozZbLNYt6xWB6g4nR5YVhDd3Q0EAtAgAhcg1YpJb9yEttgAPEAJdUspRerIyGEsFgiFoBq410j8rDbhLaqskPKokC4rGVaU8RYrJlR1SkNHN5VYUtIqFMqfXqU3zWY7XLTtdrhheuCKuLcXhOu2wbAxMalwuLzQFhuAx5EivADHK1J4vP1odO/wEKqOc4WxUMRSFreJPuNpH4wZqhjTJbKNJji7p1Ya7F42T9BLau4TiebV6jW4l4AlLLrNBosOt3g/XC+lE4szc2poCG2xAXigikBKij3Dw8FIxL+/D0UcyOyV3+5bKmoWZA+pS0d0D2mTn0stdXB2ixQ1Vj9zWcuoa6xvaqYzGGPz8xqdzqLRrIGuWm2am1O3Mibki6t2lwcakrlcbAAeR4roM8vxit1DQ4FIxBsMQtUwMwgDmfVDV1tFN1sEN9vFufTpO7TJO8zpe4LlaomSMKtqnprr7KE1l9e0kEj9cGrL5zRi8dyjGePI2NJ9+rTd44M+0BDaYgPwACXULaUUuzicvXDYHQhA1dAzKFN5tNmC+uGr/cpi9sq9DnGewFA5biawZkphueHsXtS0bflG5SpeGbHv0YRiWaFZWtTMikWTg+09bTX2Vanb74GG0BYbgMdzKQLHK3aw2bvhsOvJE6hacgZZmkuV5RPZmYzFItbjktaxW7DcQlM1fapkJnkx75lebnQHeCY9lV57Q9xRsDJc8pj6LzXtb+beP1n7frshStt2WaBhJ5uNDcADTRFIaaHbBwb8odD23h5UbdenNdTL1YzLDdyrRE5mPfdax3hOmzCnazyfOXuXMfUFR14G9265ijQ9dHOK+Edd6wVLx5tblDddna97aa/5xO9uCv9hW1uAhtAWG4AHqphqiq39/b5QaGt3F4rQlkkR5JHHc6v60qmz+fT5wgbu9UHVXe7qg67xgvE1wtRGE3eufM1DNy5XLZE+iAh/Guo/F6G8Fu165bD2+37aeRP9zxaNEBpCW2wAHs+lCByv2MJkeg4P7X4/VF3TVRqvgCLMq6SlUWR5NHkBcehq/+Nijrq0XZQrNFZL1oms6fsrrp5Vbf1k7R8i0ouI5OcI9y2k/1yC/Or+wBtrjPeN83R3MABtsQF4HCnCDxHgeEUSg+E+ONj0eqEaGq4Tmq/UdGQQGZlVvenVzMuNvOtg2ci70SXN7xDl9UiK4N49OPNgRFQibfzYM/rLxOKvEMkFZPTtOOsnh4xzdu4lFbcYGkJbbAAeoIS6JRVPTLGxt3fn4MDq8UA1ErL6WHd6h29Xdab3jOeQp3LBsne+kKm40zSSDcvNN1SSpUVT1ka5uZld9rFz6D1k5TfI4vvI5EVE8E6U++YW6xeqoZtOvxfaYgPwQBVTTRF6be/vr7vdUE012ay+EsZgUXVrBnkst2cip4oBB2UBfbGwfvgaW10KTxid4gJYbpmlkdnwT333ewnth4mFS8kgJRcSY2/vcC4q+9I2HOZUFIGUFOupVOf+vnlnB4pUmd1Yk1VXd62x43pV++WK7jQC69NKRno1KwOeMOq5N0ijN8mPCrvFtymSOyxa+mz1RWT2XUT4DsI+j/DeSkgvHEjfnW/5q9VmgLbYADyOFHeecrwikUzeCgZNLhdUU0U2h1rKot8l1F+hDd8m8/Mekj/pmcylzOTXsDJgueHsbh69xTdUiNcI7W3/nnn46xj19QTnPML4MUJ6Cel+OTTyjpL0kXpBmGz79YAS6pZSijVdXY5g0Li9DdVUkcWhlLJp9+oI12C5qbz88s607gk4KPOqmOn0hUKmsriRl8XTPoTfD82UK7yCS8H2VxOSnyHNLyFNLyIdP4wMnFe3f6icokNbbAAeqGKqKZY1N9uDQf32NhQoJqsyq6H6BoF4tbrx04rWtPLuT8qpn1TQ06r6L9cOZNYNX2/iZbcKcloGszqzP7RXvYaAYsOLoJio/R4y/MY84XcaxdgDEgkbgMdRiujL8Yp36+psgYDO6fympbHbxf110znn4tRXEoK3Et0vJ7pf2mWcHyz4vdXthLbYADyOFNE/0xyvWFhZCYrara1vUTL5BKXg75O3XvcSfrDX8CNjxbmJBx/xqcmG0BYbgAcogVhSETU9XjHnyy+3w+HNQODblUqv5pAKOUV/YVz/QFCfPidlGp12aAhtsQF4fIMU9Xp9eX191hdf/C91o7g4Kyfrs6K87KKCZx9CW6PRiI35L9AUgZMVLRaLwWCALzz+/7G8vKzT6cxmsxV+NHwNR4roXw2PUTwtQAl1S+l0ORWeSxE4sykC3wVFr9d7ZhVRNyzFs/kPNtQtmSJgMpnO2r8pQQl1wxTh4RasYcepZwkCoAEyoARiyRR9Pt8zSxCHfXAQnCIgABqoH+qGpXh28Xr/AzaLNI3s3+dGAAAAAElFTkSuQmCC;direction=south;" vertex="1" parent="peDO19Bve1qTufZmqFdl-15">
          <mxGeometry x="48.22000000000003" y="41.21999999999997" width="23.56" height="24" as="geometry" />
        </mxCell>
        <mxCell id="peDO19Bve1qTufZmqFdl-18" value="" style="group" vertex="1" connectable="0" parent="1">
          <mxGeometry x="540" y="245" width="120" height="60" as="geometry" />
        </mxCell>
        <mxCell id="peDO19Bve1qTufZmqFdl-17" value="Carte métier" style="rounded=1;whiteSpace=wrap;html=1;verticalAlign=top;" vertex="1" parent="peDO19Bve1qTufZmqFdl-18">
          <mxGeometry width="120" height="60" as="geometry" />
        </mxCell>
        <mxCell id="peDO19Bve1qTufZmqFdl-16" value="" style="shape=image;verticalLabelPosition=bottom;labelBackgroundColor=default;verticalAlign=top;aspect=fixed;imageAspect=0;image=data:image/png,iVBORw0KGgoAAAANSUhEUgAAADQAAAA0CAIAAABKGoy8AAAAAXNSR0IArs4c6QAAAARnQU1BAACxjwv8YQUAAAAJcEhZcwAADsMAAA7DAcdvqGQAAAASdEVYdFNvZnR3YXJlAEdyZWVuc2hvdF5VCAUAAAiLSURBVGhD7ZmJT1rrFsXv39rBOtvW2ap1aK0yFEFxrCiDIEIZRFEGUVEGEREZZQYRxSpSRXBCeNucLy8vuec9T2580ZvclaXBg/ntlbW/Axj/CL5goXB+v9/j8ThfgCAGhMFS/REKheAHuBoOhxOJxOGzCgJADAgTCAQewsEXhIVL6PkXIAgDkVBzkPTZO/tPQRiIhJqDR+jyixEKhzWHrr0Y/dPcX9U/zf1VQSQI9nhzGpNJvLz85AYsGoAnos2JtNri/0GARQPwhJp7PJxGA6zCk+ohnEaDBuCJaHNCjQZg94XCExqAgEUD8ISae/TMCdVqwOXv78HT661CU4dk84vSRtK7BrZ9454gzxuW2EIqjc/Ec7n7bdHuzUSbMdG0lqjTJT6oEtXKROVcolyaKPv5YIwDQMCiAXgi2tyMSpUvFO7yeTB7tWnJT9aF+qWWHtvRROiMv+tnpa/UqSuDKaAzpeOS43OSdZ8WLvb5iw0riY7dYpu1WDWfaDIUG/RFCIdxAAhYNABPqLlHwwmWlu4KhZt8HszS1S94e9UBisjUZYyPOI/Zm56R00tF+mp5N7TgzfhWUknmToAZK1BDxWZ9ostVbLcXa5SJZnOxcaNYJklgHAACFg3AE9Hm+IuLt/f313d34HHNx0ldA1ffIt7qFpu757dJRt/QtnfMFeAG4nPWgEq1Z5zx+WnWcJf54LPlpHHtoFZ7UKs7qZ4/qJAflEkOMA4AAYsG4Iloczyl8ub+Pnd7Cx5ZqpE6OhWeHjh8yyHa+j5zyUYNpvjHGZk7wE/lDOFLl9xt+Xl8PhrPfzbGe/3Fbnfxozreai1CeRWyOMYBIGDRADwRbY63sHCdz2dvbsDMhSqxvV3m7IbDB8tdidBllm/O46lYetbhm0zndMmcRbe3pksl+YfZL+Z9SrDQ4yvUaffb7YVPW4UK+T7GASBg0QA8EW2OOz9/lc9nrq/BA3MVQ8rqMdUH7nozZ7WZv94u3+5RbPWt7NIdIZbTx3H6xfbo8qLHwLY7+ncPOoyxFn2s2XD8UR2rWYxVKmIYB4CARQPwRDQcR6HI3t2dX12B6dIygaVFZGsbU39UeL4u+ciCjfb1GBPuXL1jIHkhO8up7X5pMOMypuOjNvfIfv57uNC0Gut2F6C8qvkYxgEgYNEAPBENx56bu7y9TWez4H5x6bSpacbaMrxYI3N2zXu/8dY+6SJ0uHPV29RoWniSUTh8gqOcxX3h49ut04fZgWjhkz76da/Q6SpUK6MYB4CARQPwRDTcpEyWub1NXV6CqcISmriUISsfVb8fWXw/rqnjb7Ty1lqFG52LdsqyjWZ2jnjD/N29WZN3Qe3fZG3byWZ/t+WoaTVSp428X4pgHAACFg3AE9FwLKn0/ObmJJMBU/klHH09z9jIkJfP2tokjs4fmvpFH0kbookMXbBcuHO3XGOw3JOcYdWt3jiLi5LnX4whaqjwzVf4qI5gHAACFg3AEwqH/Z2IruFpQiL5fXNzfHEB/s4uYevquOsN/ZJSwVaLaKd9dOkDLFcVoPD17YaHl+WpDfsgLPcst2zxyJ3nPu1pkmb2MCIFUgBu2zDGASBg0QA8EW1uXCxOX18nz8/B31nvqNy3FMHbgbnyfmkpY67ih7Z2TFXL0jYIjR0C/WepqQfec027Qzb3pCcsMbjn5btrHKe71+hrWws16kIYB4CARQPwRDTc6Ozs2fX14e/fYNpYKWexnq2tI8+84Rob+JvNA3OVP3c75txfWdpGbZCmjzHnzL3BU37yQmpzsX9lDf6MU2jbmD06H47lW1aCGAeAgEUD8EQ03IhQeHp1dZBOg+nMcp6ikaOqJ/Fec9breabGfln57E6b1Nk1rq5T+SnL4X7RRrfjeCp6JtxyjKeyusOsRbmrUZ8kuYls+1oA4wAQsGgAnlC4R8/ckEBwksvtp1LggYFK2nAZ9UdJv6CUPP2GInw7qKiEfIOKKpau4Ye6fmq5Bd5zfxq+qiwU69641TFhdQo2/SqpbWV009qz7sU4AAQsGoAnos0NTk//yuWip6fgQVr1jKh1Wt5Enngzpa1l6+sg3/Rms3C7lTlfA8tV+khsXYs+Orh9OKHd+g4vy6ms2uyc9V+49Kk43bSDcQAIWDQAT0SbA0oymw2fnICZ1BrRTLvgZwtltIS9VDe1UksWwOFr5G81M+QVEmcXfCaY0DTCcg37w/Omvkha+CujsDg4iaxl97dvctOEcQBIKNyjzTG43KNsNvTrF3iIVDNIrabTKwZ/VJLH3/ZNvqaJ3pEEbyiiEvhMwJirGlp4z15tntQ0cXVtCmvfopm8vj3g8HMsjukVu0xs1WEcAAIWDcAT0eb62ezDy8vA8TGY2Vcj5XaJ+B00RhlP3sRW1n9jv5paq+MYGqiiElgu3LnDCx+Uvj5NkDa90g7LDZzyDTbmaVadzBqWbAsYB4AP2P8uiATBHm+OymIlLi/9ySSY2Vct5XRJeJ10WgUsl6to6J14PbkCh6+eLHzDtzQLbW2DimqF5xt8mp/SfoLlOpJTui0aLPc0u6y3izEOAAGLBuCJaHM9w8MHl5d7ySQYwj2YVD1AqaL1l1MG3/WNvu6dfNXLfdXHf02efftdXEqXVzIVNaOLtRPqRs5y6+xat9JEWrMyzDvjZjsP4wAQsGgAnlC4R5vroNPjmYz36OgJDUDAogF4ItpcM4kELM/h4RMagIBFA/AEkQidudovX5I3N/uZzBMagIBFA/BEqLm9vb1eBqP68+cnN2D9fj8a8yeh5v53uEgk4vP54Bd2nk52u93r9UIx0WgUjfmTCDX3XELNPXrmnkV/h+ZebLi/SXMv7d9LLpcLNQc3NnxHz7wA/TvSQ7hgMAhJ4cGz9wcBIAaEgUgoHAh+gLBwFVb8jIIAEANLBkLhXqLC4X8Bw8LOb6d5GkYAAAAASUVORK5CYII=;" vertex="1" parent="peDO19Bve1qTufZmqFdl-18">
          <mxGeometry x="47" y="23" width="26" height="26" as="geometry" />
        </mxCell>
        <UserObject label="" tooltip="qsdqd" id="peDO19Bve1qTufZmqFdl-19">
          <mxCell style="edgeStyle=orthogonalEdgeStyle;rounded=0;orthogonalLoop=1;jettySize=auto;html=1;entryX=1;entryY=0.5;entryDx=0;entryDy=0;exitX=-0.044;exitY=0.494;exitDx=0;exitDy=0;exitPerimeter=0;" edge="1" parent="1" source="peDO19Bve1qTufZmqFdl-17" target="2OSnhNh6qJ_j_nFS2NJl-1">
            <mxGeometry relative="1" as="geometry">
              <mxPoint x="367" y="286" as="targetPoint" />
              <mxPoint x="288" y="285" as="sourcePoint" />
            </mxGeometry>
          </mxCell>
        </UserObject>
        <mxCell id="peDO19Bve1qTufZmqFdl-20" value="Fait&lt;br&gt;référence" style="edgeLabel;html=1;align=center;verticalAlign=middle;resizable=0;points=[];" vertex="1" connectable="0" parent="peDO19Bve1qTufZmqFdl-19">
          <mxGeometry x="-0.0222" relative="1" as="geometry">
            <mxPoint as="offset" />
          </mxGeometry>
        </mxCell>
        <UserObject label="" tooltip="qsdqd" id="peDO19Bve1qTufZmqFdl-21">
          <mxCell style="edgeStyle=orthogonalEdgeStyle;rounded=0;orthogonalLoop=1;jettySize=auto;html=1;entryX=1;entryY=0.5;entryDx=0;entryDy=0;exitX=0;exitY=0.5;exitDx=0;exitDy=0;" edge="1" parent="1" source="peDO19Bve1qTufZmqFdl-12" target="peDO19Bve1qTufZmqFdl-17">
            <mxGeometry relative="1" as="geometry">
              <mxPoint x="710" y="340" as="targetPoint" />
              <mxPoint x="815" y="280" as="sourcePoint" />
            </mxGeometry>
          </mxCell>
        </UserObject>
        <mxCell id="peDO19Bve1qTufZmqFdl-22" value="Fait&lt;br&gt;référence" style="edgeLabel;html=1;align=center;verticalAlign=middle;resizable=0;points=[];" vertex="1" connectable="0" parent="peDO19Bve1qTufZmqFdl-21">
          <mxGeometry x="-0.0222" relative="1" as="geometry">
            <mxPoint as="offset" />
          </mxGeometry>
        </mxCell>
        <mxCell id="peDO19Bve1qTufZmqFdl-37" style="edgeStyle=orthogonalEdgeStyle;rounded=0;orthogonalLoop=1;jettySize=auto;html=1;exitX=0.5;exitY=0;exitDx=0;exitDy=0;entryX=0.5;entryY=1;entryDx=0;entryDy=0;" edge="1" parent="1" source="peDO19Bve1qTufZmqFdl-23" target="peDO19Bve1qTufZmqFdl-26">
          <mxGeometry relative="1" as="geometry" />
        </mxCell>
        <mxCell id="peDO19Bve1qTufZmqFdl-38" value="Fait&lt;br&gt;référence" style="edgeLabel;html=1;align=center;verticalAlign=middle;resizable=0;points=[];" vertex="1" connectable="0" parent="peDO19Bve1qTufZmqFdl-37">
          <mxGeometry x="-0.0667" relative="1" as="geometry">
            <mxPoint as="offset" />
          </mxGeometry>
        </mxCell>
        <mxCell id="peDO19Bve1qTufZmqFdl-46" style="edgeStyle=orthogonalEdgeStyle;rounded=0;orthogonalLoop=1;jettySize=auto;html=1;exitX=0.5;exitY=0;exitDx=0;exitDy=0;entryX=0.5;entryY=1;entryDx=0;entryDy=0;" edge="1" parent="1" source="peDO19Bve1qTufZmqFdl-23" target="peDO19Bve1qTufZmqFdl-43">
          <mxGeometry relative="1" as="geometry" />
        </mxCell>
        <mxCell id="peDO19Bve1qTufZmqFdl-47" value="Fait&lt;br&gt;référence" style="edgeLabel;html=1;align=center;verticalAlign=middle;resizable=0;points=[];" vertex="1" connectable="0" parent="peDO19Bve1qTufZmqFdl-46">
          <mxGeometry x="0.0843" y="1" relative="1" as="geometry">
            <mxPoint as="offset" />
          </mxGeometry>
        </mxCell>
        <mxCell id="peDO19Bve1qTufZmqFdl-23" value="MAPFILE" style="shape=hexagon;perimeter=hexagonPerimeter2;whiteSpace=wrap;html=1;fixedSize=1;" vertex="1" parent="1">
          <mxGeometry x="565" y="130" width="70" height="50" as="geometry" />
        </mxCell>
        <UserObject label="" tooltip="qsdqd" id="peDO19Bve1qTufZmqFdl-24">
          <mxCell style="edgeStyle=orthogonalEdgeStyle;rounded=0;orthogonalLoop=1;jettySize=auto;html=1;entryX=0.5;entryY=1;entryDx=0;entryDy=0;exitX=0.5;exitY=0;exitDx=0;exitDy=0;" edge="1" parent="1" source="peDO19Bve1qTufZmqFdl-17" target="peDO19Bve1qTufZmqFdl-23">
            <mxGeometry relative="1" as="geometry">
              <mxPoint x="670" y="285" as="targetPoint" />
              <mxPoint x="660" y="220" as="sourcePoint" />
            </mxGeometry>
          </mxCell>
        </UserObject>
        <mxCell id="peDO19Bve1qTufZmqFdl-25" value="Fait&lt;br&gt;référence" style="edgeLabel;html=1;align=center;verticalAlign=middle;resizable=0;points=[];" vertex="1" connectable="0" parent="peDO19Bve1qTufZmqFdl-24">
          <mxGeometry x="-0.0222" relative="1" as="geometry">
            <mxPoint as="offset" />
          </mxGeometry>
        </mxCell>
        <UserObject label="Symbole" tooltip="" id="peDO19Bve1qTufZmqFdl-26">
          <mxCell style="ellipse;whiteSpace=wrap;html=1;aspect=fixed;" vertex="1" parent="1">
            <mxGeometry x="505" y="-40" width="60" height="60" as="geometry" />
          </mxCell>
        </UserObject>
        <mxCell id="peDO19Bve1qTufZmqFdl-30" style="edgeStyle=orthogonalEdgeStyle;rounded=0;orthogonalLoop=1;jettySize=auto;html=1;endArrow=classic;endFill=1;startArrow=classic;startFill=1;" edge="1" parent="1" source="peDO19Bve1qTufZmqFdl-27">
          <mxGeometry relative="1" as="geometry">
            <mxPoint x="218" y="240" as="targetPoint" />
          </mxGeometry>
        </mxCell>
        <mxCell id="peDO19Bve1qTufZmqFdl-34" value="Ajout / Lecture" style="edgeLabel;html=1;align=center;verticalAlign=middle;resizable=0;points=[];" vertex="1" connectable="0" parent="peDO19Bve1qTufZmqFdl-30">
          <mxGeometry x="0.2315" y="-2" relative="1" as="geometry">
            <mxPoint x="1" y="18" as="offset" />
          </mxGeometry>
        </mxCell>
        <mxCell id="peDO19Bve1qTufZmqFdl-27" value="BDD ATD" style="shape=cylinder3;whiteSpace=wrap;html=1;boundedLbl=1;backgroundOutline=1;size=15;" vertex="1" parent="1">
          <mxGeometry x="80" y="115" width="60" height="80" as="geometry" />
        </mxCell>
        <UserObject label="" tooltip="qsdqd" id="peDO19Bve1qTufZmqFdl-31">
          <mxCell style="edgeStyle=orthogonalEdgeStyle;rounded=0;orthogonalLoop=1;jettySize=auto;html=1;entryX=0;entryY=0.5;entryDx=0;entryDy=0;entryPerimeter=0;exitX=0.5;exitY=0;exitDx=0;exitDy=0;" edge="1" parent="1" source="2OSnhNh6qJ_j_nFS2NJl-4" target="peDO19Bve1qTufZmqFdl-27">
            <mxGeometry relative="1" as="geometry">
              <mxPoint x="60" y="285" as="targetPoint" />
              <mxPoint x="168" y="285" as="sourcePoint" />
            </mxGeometry>
          </mxCell>
        </UserObject>
        <mxCell id="peDO19Bve1qTufZmqFdl-32" value="Fait&lt;br&gt;référence" style="edgeLabel;html=1;align=center;verticalAlign=middle;resizable=0;points=[];" vertex="1" connectable="0" parent="peDO19Bve1qTufZmqFdl-31">
          <mxGeometry x="-0.0222" relative="1" as="geometry">
            <mxPoint as="offset" />
          </mxGeometry>
        </mxCell>
        <mxCell id="peDO19Bve1qTufZmqFdl-35" style="edgeStyle=orthogonalEdgeStyle;rounded=0;orthogonalLoop=1;jettySize=auto;html=1;entryX=1;entryY=0.5;entryDx=0;entryDy=0;entryPerimeter=0;" edge="1" parent="1" source="peDO19Bve1qTufZmqFdl-23" target="peDO19Bve1qTufZmqFdl-27">
          <mxGeometry relative="1" as="geometry" />
        </mxCell>
        <mxCell id="peDO19Bve1qTufZmqFdl-36" value="Fait référence" style="edgeLabel;html=1;align=center;verticalAlign=middle;resizable=0;points=[];" vertex="1" connectable="0" parent="peDO19Bve1qTufZmqFdl-35">
          <mxGeometry x="-0.1004" relative="1" as="geometry">
            <mxPoint as="offset" />
          </mxGeometry>
        </mxCell>
        <mxCell id="peDO19Bve1qTufZmqFdl-41" style="edgeStyle=orthogonalEdgeStyle;rounded=0;orthogonalLoop=1;jettySize=auto;html=1;entryX=0.5;entryY=0;entryDx=0;entryDy=0;strokeColor=#d6b656;dashed=1;strokeWidth=1;dashPattern=1 1;fillColor=#fff2cc;" edge="1" parent="1" source="peDO19Bve1qTufZmqFdl-40" target="peDO19Bve1qTufZmqFdl-26">
          <mxGeometry relative="1" as="geometry" />
        </mxCell>
        <mxCell id="peDO19Bve1qTufZmqFdl-40" value="/data/mapserver_data/agrn/etc/symbols.sym" style="text;html=1;strokeColor=#d6b656;fillColor=#fff2cc;spacing=5;spacingTop=-20;whiteSpace=wrap;overflow=hidden;rounded=0;verticalAlign=bottom;align=center;" vertex="1" parent="1">
          <mxGeometry x="250" y="-70" width="247.5" height="20" as="geometry" />
        </mxCell>
        <UserObject label="Font" tooltip="" id="peDO19Bve1qTufZmqFdl-43">
          <mxCell style="ellipse;whiteSpace=wrap;html=1;aspect=fixed;" vertex="1" parent="1">
            <mxGeometry x="640" y="-40" width="60" height="60" as="geometry" />
          </mxCell>
        </UserObject>
        <mxCell id="peDO19Bve1qTufZmqFdl-45" style="edgeStyle=orthogonalEdgeStyle;rounded=0;orthogonalLoop=1;jettySize=auto;html=1;entryX=0.5;entryY=0;entryDx=0;entryDy=0;fillColor=#fff2cc;strokeColor=#d6b656;dashed=1;dashPattern=1 1;" edge="1" parent="1" source="peDO19Bve1qTufZmqFdl-44" target="peDO19Bve1qTufZmqFdl-43">
          <mxGeometry relative="1" as="geometry" />
        </mxCell>
        <mxCell id="peDO19Bve1qTufZmqFdl-44" value="/data/mapserver_data/agrn/etc/fonts.txt" style="text;html=1;strokeColor=#d6b656;fillColor=#fff2cc;spacing=5;spacingTop=-20;whiteSpace=wrap;overflow=hidden;rounded=0;verticalAlign=bottom;align=center;" vertex="1" parent="1">
          <mxGeometry x="720" y="-80" width="220" height="20" as="geometry" />
        </mxCell>
      </root>
    </mxGraphModel>
  </diagram>
</mxfile>
